<mxfile host="app.diagrams.net" agent="Mozilla/5.0 (Windows NT 10.0; Win64; x64) AppleWebKit/537.36 (KHTML, like Gecko) Chrome/127.0.0.0 Safari/537.36" version="24.7.7">
  <diagram id="C5RBs43oDa-KdzZeNtuy" name="Page-1">
    <mxGraphModel dx="1467" dy="780" grid="1" gridSize="10" guides="1" tooltips="1" connect="1" arrows="1" fold="1" page="1" pageScale="1" pageWidth="827" pageHeight="1169" math="0" shadow="0">
      <root>
        <mxCell id="WIyWlLk6GJQsqaUBKTNV-0" />
        <mxCell id="WIyWlLk6GJQsqaUBKTNV-1" parent="WIyWlLk6GJQsqaUBKTNV-0" />
        <mxCell id="gTe3H9k0ng1Mh6Y4dwOW-29" value="" style="rounded=1;whiteSpace=wrap;html=1;fillColor=none;arcSize=8;" vertex="1" parent="WIyWlLk6GJQsqaUBKTNV-1">
          <mxGeometry x="150" y="450" width="651.5" height="290" as="geometry" />
        </mxCell>
        <mxCell id="gTe3H9k0ng1Mh6Y4dwOW-28" value="" style="rounded=1;whiteSpace=wrap;html=1;fillColor=none;" vertex="1" parent="WIyWlLk6GJQsqaUBKTNV-1">
          <mxGeometry x="20" y="75" width="650" height="350" as="geometry" />
        </mxCell>
        <mxCell id="gTe3H9k0ng1Mh6Y4dwOW-3" value="" style="rounded=1;whiteSpace=wrap;html=1;fillColor=none;" vertex="1" parent="WIyWlLk6GJQsqaUBKTNV-1">
          <mxGeometry x="200" y="120" width="180" height="260" as="geometry" />
        </mxCell>
        <mxCell id="WIyWlLk6GJQsqaUBKTNV-3" value="IAgentsService,&lt;div&gt;AgentsService&lt;/div&gt;" style="rounded=1;whiteSpace=wrap;html=1;fontSize=12;glass=0;strokeWidth=1;shadow=0;" parent="WIyWlLk6GJQsqaUBKTNV-1" vertex="1">
          <mxGeometry x="230" y="160" width="120" height="40" as="geometry" />
        </mxCell>
        <mxCell id="WIyWlLk6GJQsqaUBKTNV-6" value="DbContext" style="rhombus;whiteSpace=wrap;html=1;shadow=0;fontFamily=Helvetica;fontSize=12;align=center;strokeWidth=1;spacing=6;spacingTop=-4;" parent="WIyWlLk6GJQsqaUBKTNV-1" vertex="1">
          <mxGeometry x="30" y="200" width="110" height="100" as="geometry" />
        </mxCell>
        <mxCell id="gTe3H9k0ng1Mh6Y4dwOW-21" value="" style="edgeStyle=orthogonalEdgeStyle;rounded=0;orthogonalLoop=1;jettySize=auto;html=1;" edge="1" parent="WIyWlLk6GJQsqaUBKTNV-1" source="WIyWlLk6GJQsqaUBKTNV-7" target="gTe3H9k0ng1Mh6Y4dwOW-15">
          <mxGeometry relative="1" as="geometry" />
        </mxCell>
        <mxCell id="WIyWlLk6GJQsqaUBKTNV-7" value="ITargetsService,&lt;div&gt;TargetService&lt;/div&gt;" style="rounded=1;whiteSpace=wrap;html=1;fontSize=12;glass=0;strokeWidth=1;shadow=0;" parent="WIyWlLk6GJQsqaUBKTNV-1" vertex="1">
          <mxGeometry x="227" y="230" width="123" height="40" as="geometry" />
        </mxCell>
        <mxCell id="WIyWlLk6GJQsqaUBKTNV-12" value="IMissionService,&lt;div&gt;MissionService&lt;/div&gt;" style="rounded=1;whiteSpace=wrap;html=1;fontSize=12;glass=0;strokeWidth=1;shadow=0;" parent="WIyWlLk6GJQsqaUBKTNV-1" vertex="1">
          <mxGeometry x="227" y="300" width="120" height="40" as="geometry" />
        </mxCell>
        <mxCell id="gTe3H9k0ng1Mh6Y4dwOW-5" value="" style="endArrow=classic;html=1;rounded=0;exitX=0.627;exitY=0.13;exitDx=0;exitDy=0;exitPerimeter=0;entryX=0;entryY=0.5;entryDx=0;entryDy=0;" edge="1" parent="WIyWlLk6GJQsqaUBKTNV-1" source="WIyWlLk6GJQsqaUBKTNV-6" target="WIyWlLk6GJQsqaUBKTNV-3">
          <mxGeometry width="50" height="50" relative="1" as="geometry">
            <mxPoint x="290" y="350" as="sourcePoint" />
            <mxPoint x="340" y="300" as="targetPoint" />
          </mxGeometry>
        </mxCell>
        <mxCell id="gTe3H9k0ng1Mh6Y4dwOW-6" value="" style="endArrow=classic;html=1;rounded=0;exitX=1;exitY=0.5;exitDx=0;exitDy=0;entryX=0;entryY=0.5;entryDx=0;entryDy=0;" edge="1" parent="WIyWlLk6GJQsqaUBKTNV-1" source="WIyWlLk6GJQsqaUBKTNV-6" target="WIyWlLk6GJQsqaUBKTNV-7">
          <mxGeometry width="50" height="50" relative="1" as="geometry">
            <mxPoint x="290" y="350" as="sourcePoint" />
            <mxPoint x="340" y="300" as="targetPoint" />
          </mxGeometry>
        </mxCell>
        <mxCell id="gTe3H9k0ng1Mh6Y4dwOW-7" value="" style="endArrow=classic;html=1;rounded=0;exitX=1;exitY=1;exitDx=0;exitDy=0;entryX=0;entryY=0.5;entryDx=0;entryDy=0;" edge="1" parent="WIyWlLk6GJQsqaUBKTNV-1" source="WIyWlLk6GJQsqaUBKTNV-6" target="WIyWlLk6GJQsqaUBKTNV-12">
          <mxGeometry width="50" height="50" relative="1" as="geometry">
            <mxPoint x="99" y="283" as="sourcePoint" />
            <mxPoint x="230" y="250" as="targetPoint" />
          </mxGeometry>
        </mxCell>
        <mxCell id="gTe3H9k0ng1Mh6Y4dwOW-8" value="utils" style="rounded=1;whiteSpace=wrap;html=1;" vertex="1" parent="WIyWlLk6GJQsqaUBKTNV-1">
          <mxGeometry x="90" y="100" width="80" height="30" as="geometry" />
        </mxCell>
        <mxCell id="gTe3H9k0ng1Mh6Y4dwOW-12" value="" style="rounded=1;whiteSpace=wrap;html=1;fillColor=none;" vertex="1" parent="WIyWlLk6GJQsqaUBKTNV-1">
          <mxGeometry x="420" y="120" width="180" height="260" as="geometry" />
        </mxCell>
        <mxCell id="gTe3H9k0ng1Mh6Y4dwOW-14" value="AgentsController" style="rounded=1;whiteSpace=wrap;html=1;fontSize=12;glass=0;strokeWidth=1;shadow=0;" vertex="1" parent="WIyWlLk6GJQsqaUBKTNV-1">
          <mxGeometry x="451.5" y="160" width="120" height="40" as="geometry" />
        </mxCell>
        <mxCell id="gTe3H9k0ng1Mh6Y4dwOW-15" value="TargetsController" style="rounded=1;whiteSpace=wrap;html=1;fontSize=12;glass=0;strokeWidth=1;shadow=0;" vertex="1" parent="WIyWlLk6GJQsqaUBKTNV-1">
          <mxGeometry x="448.5" y="230" width="123" height="40" as="geometry" />
        </mxCell>
        <mxCell id="gTe3H9k0ng1Mh6Y4dwOW-16" value="MissionsController" style="rounded=1;whiteSpace=wrap;html=1;fontSize=12;glass=0;strokeWidth=1;shadow=0;" vertex="1" parent="WIyWlLk6GJQsqaUBKTNV-1">
          <mxGeometry x="448.5" y="300" width="120" height="40" as="geometry" />
        </mxCell>
        <mxCell id="gTe3H9k0ng1Mh6Y4dwOW-18" value="" style="endArrow=classic;startArrow=classic;html=1;rounded=0;entryX=0;entryY=0.5;entryDx=0;entryDy=0;exitX=1;exitY=0.5;exitDx=0;exitDy=0;" edge="1" parent="WIyWlLk6GJQsqaUBKTNV-1" source="WIyWlLk6GJQsqaUBKTNV-3" target="gTe3H9k0ng1Mh6Y4dwOW-14">
          <mxGeometry width="50" height="50" relative="1" as="geometry">
            <mxPoint x="390" y="300" as="sourcePoint" />
            <mxPoint x="440" y="250" as="targetPoint" />
          </mxGeometry>
        </mxCell>
        <mxCell id="gTe3H9k0ng1Mh6Y4dwOW-19" value="" style="endArrow=classic;startArrow=classic;html=1;rounded=0;entryX=0;entryY=0.5;entryDx=0;entryDy=0;exitX=1;exitY=0.5;exitDx=0;exitDy=0;" edge="1" parent="WIyWlLk6GJQsqaUBKTNV-1" source="WIyWlLk6GJQsqaUBKTNV-7">
          <mxGeometry width="50" height="50" relative="1" as="geometry">
            <mxPoint x="360" y="250" as="sourcePoint" />
            <mxPoint x="449" y="249.5" as="targetPoint" />
          </mxGeometry>
        </mxCell>
        <mxCell id="gTe3H9k0ng1Mh6Y4dwOW-20" value="" style="endArrow=classic;startArrow=classic;html=1;rounded=0;entryX=0;entryY=0.5;entryDx=0;entryDy=0;exitX=1;exitY=0.5;exitDx=0;exitDy=0;" edge="1" parent="WIyWlLk6GJQsqaUBKTNV-1">
          <mxGeometry width="50" height="50" relative="1" as="geometry">
            <mxPoint x="346.5" y="319.5" as="sourcePoint" />
            <mxPoint x="448.5" y="319.5" as="targetPoint" />
          </mxGeometry>
        </mxCell>
        <mxCell id="gTe3H9k0ng1Mh6Y4dwOW-22" value="" style="endArrow=classic;startArrow=classic;html=1;rounded=0;exitX=1;exitY=0.5;exitDx=0;exitDy=0;entryX=0;entryY=0.5;entryDx=0;entryDy=0;" edge="1" parent="WIyWlLk6GJQsqaUBKTNV-1" source="WIyWlLk6GJQsqaUBKTNV-12" target="gTe3H9k0ng1Mh6Y4dwOW-15">
          <mxGeometry width="50" height="50" relative="1" as="geometry">
            <mxPoint x="390" y="300" as="sourcePoint" />
            <mxPoint x="440" y="250" as="targetPoint" />
          </mxGeometry>
        </mxCell>
        <mxCell id="gTe3H9k0ng1Mh6Y4dwOW-23" value="" style="endArrow=classic;startArrow=classic;html=1;rounded=0;exitX=0;exitY=0.25;exitDx=0;exitDy=0;" edge="1" parent="WIyWlLk6GJQsqaUBKTNV-1" source="gTe3H9k0ng1Mh6Y4dwOW-14">
          <mxGeometry width="50" height="50" relative="1" as="geometry">
            <mxPoint x="390" y="300" as="sourcePoint" />
            <mxPoint x="350" y="320" as="targetPoint" />
          </mxGeometry>
        </mxCell>
        <mxCell id="gTe3H9k0ng1Mh6Y4dwOW-24" value="TomerApp" style="ellipse;whiteSpace=wrap;html=1;" vertex="1" parent="WIyWlLk6GJQsqaUBKTNV-1">
          <mxGeometry x="670" y="30" width="110" height="50" as="geometry" />
        </mxCell>
        <mxCell id="gTe3H9k0ng1Mh6Y4dwOW-25" value="" style="endArrow=classic;startArrow=classic;html=1;rounded=0;exitX=1;exitY=0.5;exitDx=0;exitDy=0;entryX=0.5;entryY=1;entryDx=0;entryDy=0;" edge="1" parent="WIyWlLk6GJQsqaUBKTNV-1" source="gTe3H9k0ng1Mh6Y4dwOW-14" target="gTe3H9k0ng1Mh6Y4dwOW-24">
          <mxGeometry width="50" height="50" relative="1" as="geometry">
            <mxPoint x="630" y="150" as="sourcePoint" />
            <mxPoint x="680" y="100" as="targetPoint" />
          </mxGeometry>
        </mxCell>
        <mxCell id="gTe3H9k0ng1Mh6Y4dwOW-26" value="" style="endArrow=classic;startArrow=classic;html=1;rounded=0;exitX=1;exitY=0.5;exitDx=0;exitDy=0;" edge="1" parent="WIyWlLk6GJQsqaUBKTNV-1" source="gTe3H9k0ng1Mh6Y4dwOW-16" target="gTe3H9k0ng1Mh6Y4dwOW-24">
          <mxGeometry width="50" height="50" relative="1" as="geometry">
            <mxPoint x="620" y="187" as="sourcePoint" />
            <mxPoint x="700" y="70" as="targetPoint" />
          </mxGeometry>
        </mxCell>
        <mxCell id="gTe3H9k0ng1Mh6Y4dwOW-27" value="" style="endArrow=classic;startArrow=classic;html=1;rounded=0;exitX=1;exitY=0.5;exitDx=0;exitDy=0;entryX=0.564;entryY=1;entryDx=0;entryDy=0;entryPerimeter=0;" edge="1" parent="WIyWlLk6GJQsqaUBKTNV-1" source="gTe3H9k0ng1Mh6Y4dwOW-15" target="gTe3H9k0ng1Mh6Y4dwOW-24">
          <mxGeometry width="50" height="50" relative="1" as="geometry">
            <mxPoint x="640" y="187" as="sourcePoint" />
            <mxPoint x="734" y="100" as="targetPoint" />
          </mxGeometry>
        </mxCell>
        <mxCell id="gTe3H9k0ng1Mh6Y4dwOW-30" value="" style="rounded=1;whiteSpace=wrap;html=1;fillColor=none;" vertex="1" parent="WIyWlLk6GJQsqaUBKTNV-1">
          <mxGeometry x="380" y="510" width="170" height="170" as="geometry" />
        </mxCell>
        <mxCell id="gTe3H9k0ng1Mh6Y4dwOW-31" value="DashBoardsController" style="rounded=1;whiteSpace=wrap;html=1;fontSize=12;glass=0;strokeWidth=1;shadow=0;" vertex="1" parent="WIyWlLk6GJQsqaUBKTNV-1">
          <mxGeometry x="394" y="545" width="132.75" height="40" as="geometry" />
        </mxCell>
        <mxCell id="gTe3H9k0ng1Mh6Y4dwOW-32" value="MissionSelectController" style="rounded=1;whiteSpace=wrap;html=1;fontSize=12;glass=0;strokeWidth=1;shadow=0;" vertex="1" parent="WIyWlLk6GJQsqaUBKTNV-1">
          <mxGeometry x="391" y="600" width="135.75" height="40" as="geometry" />
        </mxCell>
        <mxCell id="gTe3H9k0ng1Mh6Y4dwOW-33" value="" style="rounded=1;whiteSpace=wrap;html=1;fillColor=none;" vertex="1" parent="WIyWlLk6GJQsqaUBKTNV-1">
          <mxGeometry x="578.5" y="510" width="170" height="170" as="geometry" />
        </mxCell>
        <mxCell id="gTe3H9k0ng1Mh6Y4dwOW-34" value="IDashBoardsService,&lt;div&gt;DashBoardsService&lt;br&gt;&lt;/div&gt;" style="rounded=1;whiteSpace=wrap;html=1;fontSize=12;glass=0;strokeWidth=1;shadow=0;" vertex="1" parent="WIyWlLk6GJQsqaUBKTNV-1">
          <mxGeometry x="598.5" y="545" width="132.75" height="40" as="geometry" />
        </mxCell>
        <mxCell id="gTe3H9k0ng1Mh6Y4dwOW-44" style="edgeStyle=orthogonalEdgeStyle;rounded=0;orthogonalLoop=1;jettySize=auto;html=1;exitX=0;exitY=0.5;exitDx=0;exitDy=0;" edge="1" parent="WIyWlLk6GJQsqaUBKTNV-1" source="gTe3H9k0ng1Mh6Y4dwOW-35" target="gTe3H9k0ng1Mh6Y4dwOW-16">
          <mxGeometry relative="1" as="geometry">
            <Array as="points">
              <mxPoint x="570" y="620" />
              <mxPoint x="570" y="460" />
              <mxPoint x="509" y="460" />
            </Array>
          </mxGeometry>
        </mxCell>
        <mxCell id="gTe3H9k0ng1Mh6Y4dwOW-35" value="IMissionSelectService,&lt;div&gt;MissionSelectService&lt;/div&gt;" style="rounded=1;whiteSpace=wrap;html=1;fontSize=12;glass=0;strokeWidth=1;shadow=0;" vertex="1" parent="WIyWlLk6GJQsqaUBKTNV-1">
          <mxGeometry x="595.5" y="600" width="135.75" height="40" as="geometry" />
        </mxCell>
        <mxCell id="gTe3H9k0ng1Mh6Y4dwOW-37" value="" style="endArrow=none;html=1;rounded=0;exitX=0.75;exitY=0;exitDx=0;exitDy=0;" edge="1" parent="WIyWlLk6GJQsqaUBKTNV-1" source="gTe3H9k0ng1Mh6Y4dwOW-34">
          <mxGeometry width="50" height="50" relative="1" as="geometry">
            <mxPoint x="620" y="500" as="sourcePoint" />
            <mxPoint x="698" y="190" as="targetPoint" />
          </mxGeometry>
        </mxCell>
        <mxCell id="gTe3H9k0ng1Mh6Y4dwOW-38" value="" style="endArrow=classic;html=1;rounded=0;" edge="1" parent="WIyWlLk6GJQsqaUBKTNV-1">
          <mxGeometry width="50" height="50" relative="1" as="geometry">
            <mxPoint x="700" y="190" as="sourcePoint" />
            <mxPoint x="570" y="180" as="targetPoint" />
          </mxGeometry>
        </mxCell>
        <mxCell id="gTe3H9k0ng1Mh6Y4dwOW-41" value="" style="endArrow=classic;html=1;rounded=0;" edge="1" parent="WIyWlLk6GJQsqaUBKTNV-1">
          <mxGeometry width="50" height="50" relative="1" as="geometry">
            <mxPoint x="698.5" y="325" as="sourcePoint" />
            <mxPoint x="568.5" y="315" as="targetPoint" />
          </mxGeometry>
        </mxCell>
        <mxCell id="gTe3H9k0ng1Mh6Y4dwOW-42" value="" style="endArrow=classic;html=1;rounded=0;" edge="1" parent="WIyWlLk6GJQsqaUBKTNV-1">
          <mxGeometry width="50" height="50" relative="1" as="geometry">
            <mxPoint x="701.5" y="260" as="sourcePoint" />
            <mxPoint x="571.5" y="250" as="targetPoint" />
          </mxGeometry>
        </mxCell>
        <mxCell id="gTe3H9k0ng1Mh6Y4dwOW-45" value="" style="endArrow=classic;startArrow=classic;html=1;rounded=0;exitX=1;exitY=0.5;exitDx=0;exitDy=0;" edge="1" parent="WIyWlLk6GJQsqaUBKTNV-1" source="gTe3H9k0ng1Mh6Y4dwOW-31" target="gTe3H9k0ng1Mh6Y4dwOW-34">
          <mxGeometry width="50" height="50" relative="1" as="geometry">
            <mxPoint x="620" y="500" as="sourcePoint" />
            <mxPoint x="670" y="450" as="targetPoint" />
          </mxGeometry>
        </mxCell>
        <mxCell id="gTe3H9k0ng1Mh6Y4dwOW-46" value="" style="endArrow=classic;startArrow=classic;html=1;rounded=0;exitX=1;exitY=0.75;exitDx=0;exitDy=0;entryX=0;entryY=0.75;entryDx=0;entryDy=0;" edge="1" parent="WIyWlLk6GJQsqaUBKTNV-1" source="gTe3H9k0ng1Mh6Y4dwOW-32" target="gTe3H9k0ng1Mh6Y4dwOW-35">
          <mxGeometry width="50" height="50" relative="1" as="geometry">
            <mxPoint x="537" y="575" as="sourcePoint" />
            <mxPoint x="590" y="620" as="targetPoint" />
          </mxGeometry>
        </mxCell>
        <mxCell id="gTe3H9k0ng1Mh6Y4dwOW-47" value="" style="rounded=1;whiteSpace=wrap;html=1;fillColor=none;" vertex="1" parent="WIyWlLk6GJQsqaUBKTNV-1">
          <mxGeometry x="190" y="510" width="170" height="170" as="geometry" />
        </mxCell>
        <mxCell id="gTe3H9k0ng1Mh6Y4dwOW-48" value="DashBoardsViews" style="rounded=1;whiteSpace=wrap;html=1;fontSize=12;glass=0;strokeWidth=1;shadow=0;" vertex="1" parent="WIyWlLk6GJQsqaUBKTNV-1">
          <mxGeometry x="208.63" y="545" width="132.75" height="40" as="geometry" />
        </mxCell>
        <mxCell id="gTe3H9k0ng1Mh6Y4dwOW-49" value="MissionSelectViews" style="rounded=1;whiteSpace=wrap;html=1;fontSize=12;glass=0;strokeWidth=1;shadow=0;" vertex="1" parent="WIyWlLk6GJQsqaUBKTNV-1">
          <mxGeometry x="207.13" y="610" width="135.75" height="40" as="geometry" />
        </mxCell>
        <mxCell id="gTe3H9k0ng1Mh6Y4dwOW-50" value="" style="endArrow=classic;startArrow=classic;html=1;rounded=0;exitX=1;exitY=0.5;exitDx=0;exitDy=0;entryX=0;entryY=0.5;entryDx=0;entryDy=0;" edge="1" parent="WIyWlLk6GJQsqaUBKTNV-1" source="gTe3H9k0ng1Mh6Y4dwOW-48" target="gTe3H9k0ng1Mh6Y4dwOW-31">
          <mxGeometry width="50" height="50" relative="1" as="geometry">
            <mxPoint x="537" y="575" as="sourcePoint" />
            <mxPoint x="609" y="575" as="targetPoint" />
          </mxGeometry>
        </mxCell>
        <mxCell id="gTe3H9k0ng1Mh6Y4dwOW-51" value="" style="endArrow=classic;startArrow=classic;html=1;rounded=0;exitX=1;exitY=0.5;exitDx=0;exitDy=0;entryX=0;entryY=0.5;entryDx=0;entryDy=0;" edge="1" parent="WIyWlLk6GJQsqaUBKTNV-1" source="gTe3H9k0ng1Mh6Y4dwOW-49" target="gTe3H9k0ng1Mh6Y4dwOW-32">
          <mxGeometry width="50" height="50" relative="1" as="geometry">
            <mxPoint x="547" y="585" as="sourcePoint" />
            <mxPoint x="619" y="585" as="targetPoint" />
          </mxGeometry>
        </mxCell>
      </root>
    </mxGraphModel>
  </diagram>
</mxfile>
